<svg width="1972" height="882" viewBox="0 0 1972 882" fill="none" xmlns="http://www.w3.org/2000/svg">
<path d="M1078.55 695.296L1102.93 684.972M1086.36 676.156L1094.41 699.882" stroke="#F36748" stroke-opacity="0.11" stroke-width="7.34131" stroke-linecap="round" stroke-linejoin="round"/>
<path d="M676 831.747L700.384 821.423M683.81 812.607L691.86 836.333" stroke="#F36748" stroke-opacity="0.11" stroke-width="7.34131" stroke-linecap="round" stroke-linejoin="round"/>
<path d="M733.625 708.929L741.917 683.782M724.368 690.447L747.522 700.016" stroke="#F36748" stroke-opacity="0.11" stroke-width="7.34131" stroke-linecap="round" stroke-linejoin="round"/>
<path d="M1287 334.747L1311.38 324.423M1294.81 315.607L1302.86 339.333" stroke="#F36748" stroke-opacity="0.11" stroke-width="7.34131" stroke-linecap="round" stroke-linejoin="round"/>
<path d="M1000.48 878.325L1015.99 856.864M997.243 857.908L1016.42 874.033" stroke="#F36748" stroke-opacity="0.11" stroke-width="7.34131" stroke-linecap="round" stroke-linejoin="round"/>
<circle cx="869.518" cy="752.518" r="12.8473" stroke="#F36748" stroke-opacity="0.11" stroke-width="7.34131"/>
<circle cx="1162.52" cy="254.518" r="12.8473" stroke="#F36748" stroke-opacity="0.11" stroke-width="7.34131"/>
<circle cx="867.518" cy="254.518" r="12.8473" stroke="#F36748" stroke-opacity="0.11" stroke-width="7.34131"/>
<circle cx="672.518" cy="438.518" r="12.8473" stroke="#F36748" stroke-opacity="0.11" stroke-width="7.34131"/>
<circle cx="740.518" cy="586.518" r="12.8473" stroke="#F36748" stroke-opacity="0.11" stroke-width="7.34131"/>
<circle cx="980.518" cy="651.518" r="12.8473" stroke="#F36748" stroke-opacity="0.11" stroke-width="7.34131"/>
<circle cx="1280.52" cy="795.518" r="12.8473" stroke="#F36748" stroke-opacity="0.11" stroke-width="7.34131"/>
<path d="M815 136.556L835.556 119.865M817.185 116L831.509 136.556" stroke="#F36748" stroke-opacity="0.11" stroke-width="7.34131" stroke-linecap="round" stroke-linejoin="round"/>
<path d="M665.679 223.695L681.896 202.763M663.128 203.182L681.755 219.937" stroke="#F36748" stroke-opacity="0.11" stroke-width="7.34131" stroke-linecap="round" stroke-linejoin="round"/>
<path d="M1120 139.822L1132.11 116.271M1113.73 120.124L1135.12 133.18" stroke="#F36748" stroke-opacity="0.11" stroke-width="7.34131" stroke-linecap="round" stroke-linejoin="round"/>
<path d="M1229.27 28.0885L1241.37 4.53787M1223 8.3907L1244.38 21.4466" stroke="#F36748" stroke-opacity="0.11" stroke-width="7.34131" stroke-linecap="round" stroke-linejoin="round"/>
<circle cx="974.518" cy="44.5182" r="12.8473" stroke="#F36748" stroke-opacity="0.11" stroke-width="7.34131"/>
<circle cx="1247.52" cy="142.518" r="12.8473" stroke="#F36748" stroke-opacity="0.11" stroke-width="7.34131"/>
<path d="M422.549 695.296L446.933 684.972M430.359 676.156L438.409 699.882" stroke="#F36748" stroke-opacity="0.11" stroke-width="7.34131" stroke-linecap="round" stroke-linejoin="round"/>
<path d="M20.0005 831.747L44.3839 821.423M27.81 812.607L35.8599 836.333" stroke="#F36748" stroke-opacity="0.11" stroke-width="7.34131" stroke-linecap="round" stroke-linejoin="round"/>
<path d="M77.6255 708.929L85.9174 683.782M68.3676 690.447L91.5222 700.016" stroke="#F36748" stroke-opacity="0.11" stroke-width="7.34131" stroke-linecap="round" stroke-linejoin="round"/>
<path d="M631 334.747L655.384 324.423M638.81 315.607L646.86 339.333" stroke="#F36748" stroke-opacity="0.11" stroke-width="7.34131" stroke-linecap="round" stroke-linejoin="round"/>
<path d="M344.476 878.325L359.986 856.864M341.243 857.908L360.418 874.033" stroke="#F36748" stroke-opacity="0.11" stroke-width="7.34131" stroke-linecap="round" stroke-linejoin="round"/>
<circle cx="213.518" cy="752.518" r="12.8473" stroke="#F36748" stroke-opacity="0.11" stroke-width="7.34131"/>
<circle cx="506.518" cy="254.518" r="12.8473" stroke="#F36748" stroke-opacity="0.11" stroke-width="7.34131"/>
<circle cx="51.5179" cy="393.518" r="12.8473" stroke="#F36748" stroke-opacity="0.11" stroke-width="7.34131"/>
<circle cx="211.518" cy="254.518" r="12.8473" stroke="#F36748" stroke-opacity="0.11" stroke-width="7.34131"/>
<circle cx="16.5179" cy="438.518" r="12.8473" stroke="#F36748" stroke-opacity="0.11" stroke-width="7.34131"/>
<circle cx="84.5179" cy="586.518" r="12.8473" stroke="#F36748" stroke-opacity="0.11" stroke-width="7.34131"/>
<circle cx="324.518" cy="651.518" r="12.8473" stroke="#F36748" stroke-opacity="0.11" stroke-width="7.34131"/>
<circle cx="624.518" cy="795.518" r="12.8473" stroke="#F36748" stroke-opacity="0.11" stroke-width="7.34131"/>
<path d="M159 136.556L179.556 119.865M161.185 116L175.509 136.556" stroke="#F36748" stroke-opacity="0.11" stroke-width="7.34131" stroke-linecap="round" stroke-linejoin="round"/>
<path d="M9.67904 223.695L25.8957 202.763M7.12769 203.182L25.7549 219.937" stroke="#F36748" stroke-opacity="0.11" stroke-width="7.34131" stroke-linecap="round" stroke-linejoin="round"/>
<path d="M464.003 139.822L476.107 116.271M457.734 120.124L479.117 133.18" stroke="#F36748" stroke-opacity="0.11" stroke-width="7.34131" stroke-linecap="round" stroke-linejoin="round"/>
<path d="M273.27 459.088L285.373 435.538M267 439.39L288.384 452.446" stroke="#F36748" stroke-opacity="0.11" stroke-width="7.34131" stroke-linecap="round" stroke-linejoin="round"/>
<path d="M573.27 28.0885L585.373 4.53787M567 8.3907L588.384 21.4466" stroke="#F36748" stroke-opacity="0.11" stroke-width="7.34131" stroke-linecap="round" stroke-linejoin="round"/>
<circle cx="318.518" cy="44.5182" r="12.8473" stroke="#F36748" stroke-opacity="0.11" stroke-width="7.34131"/>
<circle cx="591.518" cy="142.518" r="12.8473" stroke="#F36748" stroke-opacity="0.11" stroke-width="7.34131"/>
<circle cx="455.518" cy="490.518" r="12.8473" stroke="#F36748" stroke-opacity="0.11" stroke-width="7.34131"/>
<path d="M1734.55 695.296L1758.93 684.972M1742.36 676.156L1750.41 699.882" stroke="#F36748" stroke-opacity="0.11" stroke-width="7.34131" stroke-linecap="round" stroke-linejoin="round"/>
<path d="M1332 831.747L1356.38 821.423M1339.81 812.607L1347.86 836.333" stroke="#F36748" stroke-opacity="0.11" stroke-width="7.34131" stroke-linecap="round" stroke-linejoin="round"/>
<path d="M1389.63 708.929L1397.92 683.782M1380.37 690.447L1403.52 700.016" stroke="#F36748" stroke-opacity="0.11" stroke-width="7.34131" stroke-linecap="round" stroke-linejoin="round"/>
<path d="M1943 334.747L1967.38 324.423M1950.81 315.607L1958.86 339.333" stroke="#F36748" stroke-opacity="0.11" stroke-width="7.34131" stroke-linecap="round" stroke-linejoin="round"/>
<path d="M1656.48 878.325L1671.99 856.864M1653.24 857.908L1672.42 874.033" stroke="#F36748" stroke-opacity="0.11" stroke-width="7.34131" stroke-linecap="round" stroke-linejoin="round"/>
<circle cx="1525.52" cy="752.518" r="12.8473" stroke="#F36748" stroke-opacity="0.11" stroke-width="7.34131"/>
<circle cx="1818.52" cy="254.518" r="12.8473" stroke="#F36748" stroke-opacity="0.11" stroke-width="7.34131"/>
<circle cx="1523.52" cy="254.518" r="12.8473" stroke="#F36748" stroke-opacity="0.11" stroke-width="7.34131"/>
<circle cx="1328.52" cy="438.518" r="12.8473" stroke="#F36748" stroke-opacity="0.11" stroke-width="7.34131"/>
<circle cx="1396.52" cy="586.518" r="12.8473" stroke="#F36748" stroke-opacity="0.11" stroke-width="7.34131"/>
<circle cx="1636.52" cy="651.518" r="12.8473" stroke="#F36748" stroke-opacity="0.11" stroke-width="7.34131"/>
<circle cx="1936.52" cy="795.518" r="12.8473" stroke="#F36748" stroke-opacity="0.11" stroke-width="7.34131"/>
<path d="M1471 136.556L1491.56 119.864M1473.19 116L1487.51 136.556" stroke="#F36748" stroke-opacity="0.11" stroke-width="7.34131" stroke-linecap="round" stroke-linejoin="round"/>
<path d="M1514 470.556L1534.56 453.864M1516.19 450L1530.51 470.556" stroke="#F36748" stroke-opacity="0.11" stroke-width="7.34131" stroke-linecap="round" stroke-linejoin="round"/>
<path d="M1321.68 223.695L1337.9 202.763M1319.13 203.182L1337.75 219.937" stroke="#F36748" stroke-opacity="0.11" stroke-width="7.34131" stroke-linecap="round" stroke-linejoin="round"/>
<path d="M1776 139.822L1788.11 116.271M1769.73 120.124L1791.12 133.18" stroke="#F36748" stroke-opacity="0.11" stroke-width="7.34131" stroke-linecap="round" stroke-linejoin="round"/>
<path d="M1819 473.822L1831.11 450.271M1812.73 454.124L1834.12 467.18" stroke="#F36748" stroke-opacity="0.11" stroke-width="7.34131" stroke-linecap="round" stroke-linejoin="round"/>
<path d="M1885.27 28.0885L1897.37 4.53787M1879 8.3907L1900.38 21.4466" stroke="#F36748" stroke-opacity="0.11" stroke-width="7.34131" stroke-linecap="round" stroke-linejoin="round"/>
<circle cx="1630.52" cy="44.5179" r="12.8473" stroke="#F36748" stroke-opacity="0.11" stroke-width="7.34131"/>
<circle cx="1673.52" cy="378.518" r="12.8473" stroke="#F36748" stroke-opacity="0.11" stroke-width="7.34131"/>
<circle cx="1903.52" cy="142.518" r="12.8473" stroke="#F36748" stroke-opacity="0.11" stroke-width="7.34131"/>
</svg>
