<svg width="660" height="882" viewBox="0 0 660 882" fill="none" xmlns="http://www.w3.org/2000/svg">
<path d="M545.921 420.571L560.671 398.581M541.976 400.28L561.703 415.725" stroke="#F36748" stroke-opacity="0.11" stroke-width="7.34131" stroke-linecap="round" stroke-linejoin="round"/>
<circle cx="384.518" cy="489.518" r="12.8473" stroke="#F36748" stroke-opacity="0.11" stroke-width="7.34131"/>
<path d="M422.549 695.296L446.933 684.972M430.359 676.156L438.409 699.882" stroke="#F36748" stroke-opacity="0.11" stroke-width="7.34131" stroke-linecap="round" stroke-linejoin="round"/>
<path d="M20.0005 831.747L44.3839 821.423M27.81 812.607L35.8599 836.333" stroke="#F36748" stroke-opacity="0.11" stroke-width="7.34131" stroke-linecap="round" stroke-linejoin="round"/>
<path d="M77.6255 708.929L85.9174 683.782M68.3676 690.447L91.5222 700.016" stroke="#F36748" stroke-opacity="0.11" stroke-width="7.34131" stroke-linecap="round" stroke-linejoin="round"/>
<path d="M631 334.747L655.384 324.423M638.81 315.607L646.86 339.333" stroke="#F36748" stroke-opacity="0.11" stroke-width="7.34131" stroke-linecap="round" stroke-linejoin="round"/>
<path d="M344.476 878.325L359.986 856.864M341.243 857.908L360.418 874.033" stroke="#F36748" stroke-opacity="0.11" stroke-width="7.34131" stroke-linecap="round" stroke-linejoin="round"/>
<circle cx="213.518" cy="752.518" r="12.8473" stroke="#F36748" stroke-opacity="0.11" stroke-width="7.34131"/>
<circle cx="506.518" cy="254.518" r="12.8473" stroke="#F36748" stroke-opacity="0.11" stroke-width="7.34131"/>
<circle cx="211.518" cy="254.518" r="12.8473" stroke="#F36748" stroke-opacity="0.11" stroke-width="7.34131"/>
<circle cx="16.5179" cy="438.518" r="12.8473" stroke="#F36748" stroke-opacity="0.11" stroke-width="7.34131"/>
<circle cx="84.5179" cy="586.518" r="12.8473" stroke="#F36748" stroke-opacity="0.11" stroke-width="7.34131"/>
<circle cx="324.518" cy="651.518" r="12.8473" stroke="#F36748" stroke-opacity="0.11" stroke-width="7.34131"/>
<circle cx="624.518" cy="795.518" r="12.8473" stroke="#F36748" stroke-opacity="0.11" stroke-width="7.34131"/>
<path d="M159 136.556L179.556 119.865M161.185 116L175.509 136.556" stroke="#F36748" stroke-opacity="0.11" stroke-width="7.34131" stroke-linecap="round" stroke-linejoin="round"/>
<path d="M9.67904 223.695L25.8957 202.763M7.12769 203.182L25.7549 219.937" stroke="#F36748" stroke-opacity="0.11" stroke-width="7.34131" stroke-linecap="round" stroke-linejoin="round"/>
<path d="M464.003 139.822L476.107 116.271M457.734 120.124L479.117 133.18" stroke="#F36748" stroke-opacity="0.11" stroke-width="7.34131" stroke-linecap="round" stroke-linejoin="round"/>
<path d="M573.27 28.0885L585.373 4.53787M567 8.3907L588.384 21.4466" stroke="#F36748" stroke-opacity="0.11" stroke-width="7.34131" stroke-linecap="round" stroke-linejoin="round"/>
<circle cx="318.518" cy="44.5182" r="12.8473" stroke="#F36748" stroke-opacity="0.11" stroke-width="7.34131"/>
<circle cx="591.518" cy="142.518" r="12.8473" stroke="#F36748" stroke-opacity="0.11" stroke-width="7.34131"/>
</svg>
