<svg width="24" height="24" viewBox="0 0 24 24" fill="none" xmlns="http://www.w3.org/2000/svg">
<mask id="mask0_1_158" style="mask-type:alpha" maskUnits="userSpaceOnUse" x="0" y="0" width="24" height="24">
<rect width="24" height="24" fill="#D9D9D9"/>
</mask>
<g mask="url(#mask0_1_158)">
<path d="M7.3077 22.5C6.80257 22.5 6.375 22.325 6.025 21.975C5.675 21.625 5.5 21.1974 5.5 20.6923V3.30772C5.5 2.80259 5.675 2.37502 6.025 2.02502C6.375 1.67502 6.80257 1.50002 7.3077 1.50002H16.6922C17.1974 1.50002 17.625 1.67502 17.975 2.02502C18.325 2.37502 18.5 2.80259 18.5 3.30772V20.6923C18.5 21.1974 18.325 21.625 17.975 21.975C17.625 22.325 17.1974 22.5 16.6922 22.5H7.3077ZM6.99997 19.75V20.6923C6.99997 20.7692 7.03202 20.8397 7.09613 20.9038C7.16024 20.9679 7.23077 21 7.3077 21H16.6922C16.7692 21 16.8397 20.9679 16.9038 20.9038C16.9679 20.8397 17 20.7692 17 20.6923V19.75H6.99997ZM6.99997 18.25H17V5.74997H6.99997V18.25ZM6.99997 4.25002H17V3.30772C17 3.23079 16.9679 3.16026 16.9038 3.09615C16.8397 3.03205 16.7692 3 16.6922 3H7.3077C7.23077 3 7.16024 3.03205 7.09613 3.09615C7.03202 3.16026 6.99997 3.23079 6.99997 3.30772V4.25002Z" fill="#F36648"/>
</g>
</svg>
