<svg width="24" height="24" viewBox="0 0 24 24" fill="none" xmlns="http://www.w3.org/2000/svg">
<mask id="mask0_1_151" style="mask-type:alpha" maskUnits="userSpaceOnUse" x="0" y="0" width="24" height="24">
<rect width="24" height="24" fill="#D9D9D9"/>
</mask>
<g mask="url(#mask0_1_151)">
<path d="M10.0635 19.7231C9.68014 19.1346 9.33912 18.4949 9.0404 17.8038C8.74167 17.1128 8.50128 16.4025 8.31922 15.673H4.92688C5.46151 16.7179 6.16344 17.5888 7.03268 18.2856C7.90193 18.9824 8.91219 19.4615 10.0635 19.7231ZM4.29805 14.1731H8.01538C7.95256 13.8013 7.90705 13.4369 7.87885 13.0798C7.85065 12.7228 7.83655 12.3628 7.83655 12C7.83655 11.6372 7.85065 11.2772 7.87885 10.9202C7.90705 10.5631 7.95256 10.1987 8.01538 9.8269H4.29805C4.2019 10.1666 4.12818 10.5199 4.0769 10.8865C4.02562 11.2532 3.99998 11.6243 3.99998 12C3.99998 12.3756 4.02562 12.7468 4.0769 13.1135C4.12818 13.4801 4.2019 13.8333 4.29805 14.1731ZM4.92688 8.32695H8.31922C8.48846 7.59105 8.72564 6.87277 9.03078 6.17212C9.33591 5.47147 9.68014 4.83973 10.0635 4.2769C8.94424 4.52561 7.94038 5.00318 7.0519 5.7096C6.16343 6.41601 5.45509 7.28846 4.92688 8.32695ZM9.85958 8.32695H14.1404C13.9211 7.51028 13.6372 6.75771 13.2885 6.06925C12.9397 5.38078 12.5102 4.69808 12 4.02115C11.4897 4.67243 11.0634 5.34231 10.7211 6.03077C10.3788 6.71924 10.0916 7.48463 9.85958 8.32695ZM15.6807 8.32695H19.0731C18.5449 7.28846 17.8365 6.41441 16.9481 5.7048C16.0596 4.99518 15.0557 4.51921 13.9365 4.2769C14.2878 4.83331 14.616 5.46185 14.9211 6.1625C15.2262 6.86315 15.4794 7.58463 15.6807 8.32695ZM12 21.5C10.6974 21.5 9.46825 21.2503 8.3125 20.7509C7.15673 20.2516 6.14872 19.5718 5.28845 18.7115C4.4282 17.8513 3.7484 16.8432 3.24905 15.6875C2.74968 14.5317 2.5 13.3026 2.5 12C2.5 10.6872 2.74968 9.45546 3.24905 8.30482C3.7484 7.15419 4.4282 6.14874 5.28845 5.28847C6.14872 4.42822 7.15673 3.74842 8.3125 3.24907C9.46825 2.74971 10.6974 2.50002 12 2.50002C13.3128 2.50002 14.5445 2.74971 15.6952 3.24907C16.8458 3.74842 17.8512 4.42822 18.7115 5.28847C19.5718 6.14874 20.2516 7.15419 20.7509 8.30482C21.2503 9.45546 21.5 10.6872 21.5 12C21.5 12.1731 21.4958 12.3494 21.4875 12.5288C21.4791 12.7083 21.4634 12.8846 21.4403 13.0577H19.9154C19.9487 12.8846 19.9711 12.7109 19.9827 12.5365C19.9942 12.3622 20 12.1833 20 12C20 11.6243 19.9743 11.2532 19.9231 10.8865C19.8718 10.5199 19.7981 10.1666 19.7019 9.8269H15.9846C16.0474 10.1987 16.0929 10.5631 16.1211 10.9202C16.1493 11.2772 16.1634 11.6372 16.1634 12C16.1634 12.1833 16.1618 12.3606 16.1586 12.5317C16.1554 12.7029 16.1455 12.8782 16.1288 13.0577H14.6288C14.6455 12.8846 14.6554 12.7109 14.6587 12.5365C14.6618 12.3622 14.6635 12.1833 14.6635 12C14.6635 11.6243 14.6494 11.2612 14.6212 10.9106C14.5929 10.5599 14.5474 10.1987 14.4846 9.8269H9.51535C9.45253 10.1987 9.40702 10.5599 9.3788 10.9106C9.3506 11.2612 9.3365 11.6243 9.3365 12C9.3365 12.3756 9.3506 12.7388 9.3788 13.0894C9.40702 13.4401 9.45253 13.8013 9.51535 14.1731H13.0577V15.673H9.85958C10.0916 16.509 10.3836 17.2791 10.7356 17.9836C11.0875 18.6881 11.5089 19.3532 12 19.9788C12.1961 19.7186 12.3807 19.4526 12.5538 19.1808C12.7269 18.909 12.8949 18.6314 13.0577 18.3481V21.4403C12.8846 21.4634 12.7109 21.4791 12.5365 21.4875C12.3622 21.4958 12.1833 21.5 12 21.5Z" fill="#F36648"/>
</g>
<path d="M19.7 20.7692L16.5 17.5692V20.15H15V15H20.15V16.5H17.5442L20.7442 19.7L19.7 20.7692Z" fill="#F36648"/>
</svg>
